<svg width="58" height="58" viewBox="0 0 58 58" fill="none" xmlns="http://www.w3.org/2000/svg">
  <g filter="url(#filter0_d_21_75)">
    <rect x="3.99994" width="50" height="50" rx="10" fill="#D9D9D9"/>
  </g>
  <path d="M37.9829 14.861C35.3987 12.3233 32.0452 10.9322 28.4874 10.9355C22.0847 10.9414 16.5571 15.5457 15.0309 21.9326C14.9198 22.3975 14.5249 22.7258 14.0678 22.7258H9.33109C8.7113 22.7258 8.24046 22.1357 8.35511 21.4968C10.1437 11.5358 18.4825 4 28.5 4C33.9927 4 38.9807 6.26582 42.6611 9.95455L45.6134 6.85829C46.8631 5.54757 49 6.47588 49 8.32956V19.9516C49 21.1007 48.1118 22.0323 47.0161 22.0323H35.9346C34.1672 22.0323 33.282 19.7911 34.5318 18.4803L37.9829 14.861ZM9.98387 28.9677H21.0654C22.8328 28.9677 23.718 31.2089 22.4682 32.5197L19.0171 36.1391C21.6013 38.6769 24.9551 40.068 28.5129 40.0646C34.9124 40.0585 40.4422 35.4574 41.9691 29.0676C42.0802 28.6027 42.4751 28.2744 42.9322 28.2744H47.669C48.2888 28.2744 48.7596 28.8645 48.645 29.5033C46.8563 39.4643 38.5175 47 28.5 47C23.0073 47 18.0193 44.7342 14.3389 41.0455L11.3866 44.1417C10.1369 45.4524 8 44.5241 8 42.6704V31.0484C8 29.8993 8.8882 28.9677 9.98387 28.9677Z" fill="black"/>
  <defs>
    <filter id="filter0_d_21_75" x="-6.10352e-05" y="0" width="58" height="58" filterUnits="userSpaceOnUse" color-interpolation-filters="sRGB">
      <feFlood flood-opacity="0" result="BackgroundImageFix"/>
      <feColorMatrix in="SourceAlpha" type="matrix" values="0 0 0 0 0 0 0 0 0 0 0 0 0 0 0 0 0 0 127 0" result="hardAlpha"/>
      <feOffset dy="4"/>
      <feGaussianBlur stdDeviation="2"/>
      <feComposite in2="hardAlpha" operator="out"/>
      <feColorMatrix type="matrix" values="0 0 0 0 0 0 0 0 0 0 0 0 0 0 0 0 0 0 0.25 0"/>
      <feBlend mode="normal" in2="BackgroundImageFix" result="effect1_dropShadow_21_75"/>
      <feBlend mode="normal" in="SourceGraphic" in2="effect1_dropShadow_21_75" result="shape"/>
    </filter>
  </defs>
</svg>